
<svg xmlns="http://www.w3.org/2000/svg" width="150" height="50" viewBox="0 0 150 50">
  <path fill="#FFFFFF" d="M25.2,7.8c5.6,0,10.2,4.6,10.2,10.2s-4.6,10.2-10.2,10.2S15,23.6,15,18S19.6,7.8,25.2,7.8z M58.9,7.9h6l7.3,18.5h-5.6l-1.1-3.1h-7.2l-1.1,3.1h-5.6L58.9,7.9z M64,18.9l-2.1-5.9l-2.1,5.9H64z M76.4,7.9h8c3.9,0,6.3,0.8,6.3,4.8c0,2.1-1.1,3.3-2.9,3.8c1.9,0.5,3.3,1.4,3.3,4c0,4.2-2.9,5.9-6.8,5.9h-8V7.9z M83.4,15.2c0.9,0,1.6-0.4,1.6-1.4s-0.7-1.4-1.6-1.4h-2.3v2.8H83.4z M84.1,21.8c1,0,1.7-0.5,1.7-1.5c0-1.1-0.7-1.5-1.7-1.5h-3v3.1H84.1z M109.7,10.7h-5.3v15.6h-4.8V10.7h-5.3V7.9h15.5V10.7z"/>
  <path fill="#FFFFFF" d="M25.2,0C11.3,0,0,11.3,0,25.2s11.3,25.2,25.2,25.2s25.2-11.3,25.2-25.2S39.1,0,25.2,0z M25.2,40.4c-8.4,0-15.2-6.8-15.2-15.2s6.8-15.2,15.2-15.2s15.2,6.8,15.2,15.2S33.6,40.4,25.2,40.4z"/>
</svg>
